<?xml version="1.0" encoding="UTF-8" standalone="no"?>
<!-- Created with Inkscape (http://www.inkscape.org/) -->

<svg
   width="32"
   height="32"
   viewBox="0 0 8.4666665 8.4666666"
   version="1.1"
   id="svg1"
   xml:space="preserve"
   inkscape:version="1.3.2 (091e20e, 2023-11-25, custom)"
   sodipodi:docname="refresh.svg"
   xmlns:inkscape="http://www.inkscape.org/namespaces/inkscape"
   xmlns:sodipodi="http://sodipodi.sourceforge.net/DTD/sodipodi-0.dtd"
   xmlns="http://www.w3.org/2000/svg"
   xmlns:svg="http://www.w3.org/2000/svg"><sodipodi:namedview
     id="namedview1"
     pagecolor="#505050"
     bordercolor="#ffffff"
     borderopacity="1"
     inkscape:showpageshadow="0"
     inkscape:pageopacity="0"
     inkscape:pagecheckerboard="1"
     inkscape:deskcolor="#505050"
     inkscape:document-units="px"
     inkscape:zoom="16.549473"
     inkscape:cx="6.5258875"
     inkscape:cy="9.3960695"
     inkscape:window-width="1920"
     inkscape:window-height="1017"
     inkscape:window-x="-8"
     inkscape:window-y="-8"
     inkscape:window-maximized="1"
     inkscape:current-layer="layer1" /><defs
     id="defs1" /><g
     inkscape:label="Layer 1"
     inkscape:groupmode="layer"
     id="layer1"><path
       style="fill:#000000;fill-opacity:1;stroke-width:1.43442;stroke-linecap:square"
       d="m 7.4619581,3.0708689 0.00866,-2.19936393 c 0,-0.45244028 -0.7107303,-0.46080971 -0.7107303,0.0173344 L 6.742561,1.9376006 C 6.01847,1.3323662 5.3832955,1.0290156 4.4456878,1.010184 2.4283417,1.0257876 0.99604498,2.6184971 0.99604498,4.4684942 c 0,1.8866529 1.70631312,3.4669774 3.40630562,3.4669774 1.749378,0 2.5318755,-1.1107848 2.9816005,-1.7074863 C 7.6385082,5.8690329 7.1171018,5.4407148 6.8118999,5.8206153 6.1843962,6.5407466 5.6104838,7.1900715 4.47169,7.1900715 c -1.5678938,0 -2.7129099,-1.3238044 -2.7129099,-2.6435704 0,-1.8544735 1.5044918,-2.773582 2.6609054,-2.773582 0.8932715,0.019253 1.3276682,0.3082801 1.8981698,0.8060723 H 5.1304157 c -0.504141,0.010398 -0.5036878,0.7514755 0,0.7627349 L 7.1845999,3.315723 c 0.2047881,0 0.2773582,-0.075456 0.2773582,-0.2448541 z"
       id="path1"
       sodipodi:nodetypes="ccccccccccccccccc" /></g></svg>
