<?xml version="1.0" encoding="UTF-8" standalone="no"?>
<!-- Created with Inkscape (http://www.inkscape.org/) -->

<svg
   width="32"
   height="32"
   viewBox="0 0 8.4666665 8.4666666"
   version="1.1"
   id="svg1"
   xml:space="preserve"
   inkscape:version="1.3.2 (091e20e, 2023-11-25, custom)"
   sodipodi:docname="settings.svg"
   xmlns:inkscape="http://www.inkscape.org/namespaces/inkscape"
   xmlns:sodipodi="http://sodipodi.sourceforge.net/DTD/sodipodi-0.dtd"
   xmlns="http://www.w3.org/2000/svg"
   xmlns:svg="http://www.w3.org/2000/svg"><sodipodi:namedview
     id="namedview1"
     pagecolor="#505050"
     bordercolor="#ffffff"
     borderopacity="1"
     inkscape:showpageshadow="0"
     inkscape:pageopacity="0"
     inkscape:pagecheckerboard="1"
     inkscape:deskcolor="#505050"
     inkscape:document-units="px"
     inkscape:zoom="8.2747365"
     inkscape:cx="8.2177843"
     inkscape:cy="14.924946"
     inkscape:window-width="1920"
     inkscape:window-height="1017"
     inkscape:window-x="-8"
     inkscape:window-y="-8"
     inkscape:window-maximized="1"
     inkscape:current-layer="layer1" /><defs
     id="defs1" /><g
     inkscape:label="Layer 1"
     inkscape:groupmode="layer"
     id="layer1"><path
       id="path2"
       style="fill:#000000;fill-opacity:1;stroke-width:1.32292;stroke-linecap:square"
       d="M 3.3289957,0.55939733 3.1031697,1.6048115 2.6055257,1.9779154 1.4918986,1.6275492 0.59324547,3.1876606 1.4469401,3.9845112 v 0.5090129 l -0.85369463,0.7797973 0.95549723,1.5999028 1.0795206,-0.350883 0.4237468,0.294038 0.2263427,1.09089 h 1.8820557 l 0.2206584,-1.062468 0.5028116,-0.35605 1.0004557,0.4408 L 7.8734211,5.2903746 7.0088744,4.5043761 V 3.9788268 L 7.8734211,3.2047138 6.9070719,1.6332336 5.83892,1.9892842 5.3924357,1.6781921 5.1717773,0.55939733 Z M 4.2276489,3.029014 A 1.2150438,1.2150438 0 0 1 5.4425618,4.2444437 1.2150438,1.2150438 0 0 1 4.2276489,5.4593566 1.2150438,1.2150438 0 0 1 3.0122192,4.2444437 1.2150438,1.2150438 0 0 1 4.2276489,3.029014 Z" /></g></svg>
